<?xml version="1.0" standalone="no"?>
<!DOCTYPE svg PUBLIC "-//W3C//DTD SVG 20010904//EN"
 "http://www.w3.org/TR/2001/REC-SVG-20010904/DTD/svg10.dtd">
<svg version="1.0" xmlns="http://www.w3.org/2000/svg"
 width="1024.000000pt" height="1024.000000pt" viewBox="0 0 1024.000000 1024.000000"
 preserveAspectRatio="xMidYMid meet">

<g transform="translate(0.000000,1024.000000) scale(0.100000,-0.100000)"
fill="#12372A" stroke="none">
<path d="M4969 8143 c-130 -132 -236 -266 -306 -388 -90 -154 -174 -374 -214
-555 -11 -52 -21 -95 -22 -97 -2 -1 -25 25 -52 59 -126 153 -344 327 -520 415
-103 52 -287 120 -376 138 -74 16 -100 11 -118 -23 -38 -74 -49 -522 -18 -717
49 -293 150 -566 292 -787 25 -38 45 -70 45 -72 0 -2 -46 -6 -102 -10 -393
-27 -834 -120 -1098 -231 -196 -82 -354 -206 -408 -322 -23 -50 -27 -70 -27
-153 0 -84 3 -102 28 -152 60 -123 167 -211 379 -313 115 -55 506 -195 545
-195 7 0 30 -10 51 -23 26 -16 55 -24 94 -25 32 -1 114 -13 184 -27 259 -51
649 -98 1129 -137 254 -21 1132 -18 1415 5 681 54 1175 137 1595 268 510 159
751 352 748 599 -2 201 -181 373 -523 506 -245 94 -640 171 -1027 200 -51 3
-93 9 -93 13 0 3 15 29 33 56 156 233 269 552 308 870 26 214 3 612 -39 658
-25 28 -120 17 -267 -31 -235 -77 -423 -192 -605 -368 -63 -62 -128 -130 -145
-153 -16 -22 -32 -41 -35 -41 -3 0 -14 40 -24 90 -10 49 -38 148 -62 220 -100
299 -236 512 -482 753 -79 77 -105 97 -128 97 -24 0 -51 -22 -155 -127z m339
-259 c201 -243 335 -565 371 -891 l9 -82 -94 -142 c-100 -152 -207 -357 -275
-529 -61 -154 -165 -456 -180 -523 -12 -57 -29 -86 -29 -50 0 10 -31 110 -69
223 -144 429 -252 662 -429 928 l-56 84 13 101 c15 126 68 333 115 449 85 211
170 341 360 551 l79 87 68 -74 c38 -40 90 -100 117 -132z m1456 -609 c0 -224
-1 -249 -27 -367 -72 -338 -211 -616 -439 -883 -222 -260 -504 -448 -838 -559
-74 -24 -137 -43 -139 -41 -2 3 37 47 86 98 150 157 265 356 342 592 66 203
91 364 92 593 0 126 3 159 17 180 89 142 263 333 387 426 133 100 306 189 440
226 59 17 60 17 69 -4 6 -11 10 -129 10 -261z m-3178 251 c313 -107 575 -314
777 -610 l40 -60 -2 -105 c-4 -208 38 -479 104 -670 81 -231 183 -405 330
-559 99 -104 99 -103 -45 -54 -581 196 -1025 639 -1221 1220 -70 207 -106 458
-95 673 7 146 14 189 30 189 7 0 44 -11 82 -24z m2099 -983 c-20 -254 -110
-527 -236 -720 -62 -94 -182 -238 -187 -224 -6 19 157 490 225 646 60 140 188
385 201 385 2 0 1 -39 -3 -87z m-1010 -133 c23 -47 72 -159 108 -250 66 -166
200 -560 193 -567 -6 -6 -113 126 -160 198 -138 207 -231 483 -251 739 l-7 85
37 -60 c20 -32 56 -97 80 -145z m-825 -507 c142 -169 419 -378 627 -473 284
-130 437 -170 655 -170 146 0 242 18 408 75 335 116 631 309 833 542 l82 94
115 -6 c322 -17 730 -87 985 -170 150 -49 319 -134 389 -197 281 -250 51 -492
-659 -693 -324 -91 -749 -162 -1260 -209 -588 -55 -1320 -51 -1910 10 -219 22
-522 61 -585 75 l-55 12 115 38 c63 21 252 80 419 133 167 52 312 103 322 112
24 22 24 65 1 95 -32 39 -28 40 -572 -128 -135 -41 -330 -102 -434 -135 l-190
-59 -120 36 c-386 116 -610 219 -729 334 -291 280 93 563 946 697 180 28 397
51 497 52 l65 1 55 -66z"/>
<path d="M5640 3649 c-77 -13 -195 -73 -250 -128 -174 -175 -130 -454 89 -565
55 -28 136 -52 314 -91 169 -37 216 -61 256 -125 56 -92 -4 -211 -128 -255
-67 -23 -217 -20 -287 6 -75 28 -130 79 -151 140 l-18 49 -123 0 -122 0 6 -27
c44 -181 149 -287 345 -348 80 -25 294 -31 389 -11 150 32 259 108 308 214 21
46 27 76 30 152 5 113 -18 188 -77 253 -69 76 -111 93 -430 172 -207 51 -270
94 -278 194 -6 69 26 118 102 156 54 27 69 30 150 29 140 -1 228 -49 260 -140
l13 -39 116 -3 c64 -1 116 1 116 5 0 21 -29 112 -45 142 -86 168 -333 260
-585 220z"/>
<path d="M1760 2965 c0 -360 0 -657 0 -660 0 -3 198 -5 441 -5 l440 0 2 105 2
105 -332 0 -333 0 0 170 0 170 305 0 305 0 0 105 0 105 -305 0 -305 0 0 175 0
175 325 0 325 0 0 105 0 105 -435 0 -435 0 0 -655z"/>
<path d="M3040 2958 l0 -663 415 3 415 2 0 105 0 105 -300 0 -300 0 0 555 0
555 -115 0 -115 0 0 -662z"/>
<path d="M3942 3478 c50 -79 163 -253 250 -387 l158 -243 0 -272 c0 -150 2
-275 4 -277 2 -2 54 -3 115 -1 l111 3 0 274 0 274 109 173 c59 95 167 267 240
382 72 115 131 210 131 212 0 2 -58 4 -129 4 l-129 0 -167 -270 c-92 -148
-170 -270 -173 -270 -4 0 -43 57 -86 128 -44 70 -120 191 -170 269 l-91 143
-132 0 -132 0 91 -142z"/>
<path d="M6667 2959 l3 -660 112 0 113 0 3 660 2 661 -117 0 -118 0 2 -661z"/>
<path d="M7686 3542 c-68 -184 -163 -430 -231 -602 -68 -172 -229 -599 -237
-628 -2 -10 25 -13 121 -13 l124 0 61 165 60 166 282 0 282 0 10 -27 c6 -16
31 -82 56 -148 24 -66 47 -128 51 -137 6 -16 23 -18 135 -18 l127 0 -64 168
c-35 92 -152 389 -260 660 l-196 492 -146 0 -146 0 -29 -78z m284 -422 c50
-135 95 -255 100 -267 l10 -23 -210 0 c-116 0 -210 3 -210 7 0 8 190 525 197
536 10 17 24 -13 113 -253z"/>
</g>
</svg>
